<svg width="48" height="48" viewBox="0 0 48 48" fill="none" xmlns="http://www.w3.org/2000/svg">
<g clip-path="url(#clip0_2412_289)">
<path d="M24.2922 18.127C27.4079 18.2791 29.89 20.8504 29.8958 24.005L29.8889 24.3087C29.7414 27.3236 27.3282 29.7453 24.3137 29.9034L24.011 29.9112C22.9291 29.9144 21.8694 29.6131 20.9495 29.045L18.9875 29.8614L18.9778 29.8653L18.968 29.8673C18.8954 29.881 18.8211 29.8799 18.7483 29.8682V29.8692C18.7049 29.8694 18.6617 29.8652 18.6194 29.8565L18.4954 29.8165C18.1773 29.6776 18.0314 29.3074 18.1702 28.9893L18.9846 27.0606C18.4161 26.1376 18.1163 25.0741 18.1204 23.9893L18.1282 23.6876C18.2955 20.5912 20.854 18.1316 23.9895 18.1202L24.2922 18.127ZM23.9895 19.3761C21.4419 19.3761 19.3762 21.4418 19.3762 23.9893C19.3853 24.9202 19.6817 25.8254 20.2239 26.5821L20.2678 26.6505C20.3072 26.7211 20.3321 26.7992 20.342 26.88L20.3469 26.961C20.3463 27.0419 20.3303 27.1222 20.2991 27.1973V27.1983L19.9504 28.0245L20.7483 27.6807L20.7581 27.6759L20.7688 27.6739C20.841 27.6602 20.915 27.6605 20.9875 27.672L21.0842 27.6788C21.1801 27.6929 21.2716 27.7293 21.3518 27.7852H21.3528L21.6487 27.9776C22.3263 28.3802 23.0989 28.596 23.8899 28.6085V28.6016H23.9895C26.537 28.6016 28.6016 26.5369 28.6018 23.9893L28.5959 23.752C28.4725 21.3147 26.4575 19.3761 23.9895 19.3761Z" fill="#6F767E" stroke="#6F767E" stroke-width="0.2"/>
<path d="M26.272 23.2451C26.6832 23.2451 27.0161 23.5781 27.0161 23.9893C27.0161 24.4005 26.6832 24.7334 26.272 24.7334C25.8608 24.7334 25.5278 24.4005 25.5278 23.9893C25.5278 23.5781 25.8608 23.2451 26.272 23.2451Z" fill="#6F767E" stroke="#6F767E" stroke-width="0.2"/>
<path d="M24.7124 24.0132C24.6997 24.3986 24.3965 24.7063 24.02 24.732L23.9438 24.733C23.5328 24.7194 23.2106 24.3754 23.2241 23.9644L23.2309 23.8882C23.2815 23.5144 23.6075 23.232 23.9926 23.2447H23.9946L24.1391 23.2662C24.4661 23.3468 24.7071 23.6392 24.7124 23.9878L24.7133 23.9888L24.7124 24.0132Z" fill="#6F767E" stroke="#6F767E" stroke-width="0.2"/>
<path d="M21.7177 23.2451C22.1289 23.2451 22.4619 23.5781 22.4619 23.9893C22.4619 24.4005 22.1289 24.7334 21.7177 24.7334C21.3065 24.7334 20.9736 24.4005 20.9736 23.9893C20.9736 23.5781 21.3066 23.2451 21.7177 23.2451Z" fill="#6F767E" stroke="#6F767E" stroke-width="0.2"/>
<mask id="path-6-outside-1_2412_289" maskUnits="userSpaceOnUse" x="12" y="12" width="24" height="24" fill="black">
<rect fill="white" x="12" y="12" width="24" height="24"/>
<path d="M34.4716 21.7387H32.9395C32.7114 20.8668 32.3553 20.0336 31.8828 19.2661L32.9395 18.2094C33.1467 18.004 33.148 17.6695 32.9426 17.4623L32.9395 17.4592L30.5303 14.9971C30.3248 14.7958 29.996 14.7958 29.7906 14.9971L28.7339 16.0538C27.9788 15.5794 27.1557 15.223 26.293 14.9971V13.5284C26.293 13.2366 26.0565 13 25.7647 13H22.2776C21.9858 13 21.7493 13.2366 21.7493 13.5284V15.0288C20.8815 15.2592 20.052 15.6152 19.2872 16.0855L18.2305 15.0288C18.0251 14.8275 17.6963 14.8275 17.4909 15.0288L15.0077 17.4486C14.8063 17.654 14.8063 17.9828 15.0077 18.1882L16.0643 19.2449C15.5931 20.013 15.2371 20.8461 15.0077 21.7175H13.5284C13.4584 21.7111 13.3879 21.7223 13.3234 21.7499C13.2588 21.7776 13.2021 21.821 13.1585 21.876C13.0589 21.9736 13.002 22.1065 13 22.2459V25.7012C13 25.993 13.2366 26.2296 13.5284 26.2296H15.0288C15.2584 27.101 15.6144 27.934 16.0855 28.7022L15.0288 29.7589C14.8274 29.9644 14.8274 30.2931 15.0288 30.4986L17.4486 32.9712C17.654 33.1725 17.9828 33.1725 18.1882 32.9712L19.2449 31.9145C20.014 32.3839 20.8468 32.7398 21.7175 32.9712V34.4716C21.7175 34.7634 21.9541 35 22.2459 35H25.7329C26.0247 35 26.2613 34.7634 26.2613 34.4716V32.95C27.1237 32.7233 27.9467 32.367 28.7022 31.8934L29.7589 32.95C29.9643 33.1514 30.2931 33.1514 30.4985 32.95L32.9711 30.4986C33.1783 30.2931 33.1797 29.9586 32.9742 29.7514L32.9711 29.7483L31.9145 28.6916C32.3867 27.9278 32.7428 27.0981 32.9712 26.2296H34.4716C34.7634 26.2296 35 25.993 35 25.7012V22.267C35 21.9752 34.7634 21.7387 34.4716 21.7387ZM33.9222 25.1941H32.5168C32.395 25.194 32.277 25.2361 32.1826 25.3131C32.0883 25.3901 32.0234 25.4974 31.9991 25.6167C31.7974 26.6433 31.3952 27.6199 30.8156 28.4909C30.7478 28.5921 30.7171 28.7137 30.7286 28.835C30.7402 28.9564 30.7933 29.07 30.879 29.1566L31.8723 30.1499L30.1393 31.8617L29.146 30.8895C29.0594 30.8038 28.9458 30.7507 28.8245 30.7391C28.7032 30.7276 28.5816 30.7583 28.4803 30.8261C27.6183 31.4079 26.6481 31.8104 25.6273 32.0096C25.508 32.0339 25.4007 32.0988 25.3237 32.1931C25.2467 32.2875 25.2046 32.4055 25.2047 32.5273V33.9221H22.7743V32.5273C22.7743 32.4055 22.7323 32.2875 22.6552 32.1931C22.5782 32.0988 22.471 32.0339 22.3516 32.0096C21.324 31.8005 20.3453 31.399 19.4669 30.8261C19.3666 30.761 19.2473 30.7318 19.1283 30.7433C19.0093 30.7549 18.8977 30.8064 18.8118 30.8895L17.8184 31.8617L16.1172 30.1499L17.0893 29.1566C17.1751 29.07 17.2282 28.9564 17.2397 28.835C17.2513 28.7137 17.2206 28.5921 17.1527 28.4909C16.579 27.6142 16.1807 26.6345 15.9798 25.6062C15.9555 25.4868 15.8906 25.3796 15.7963 25.3026C15.7019 25.2255 15.5839 25.1835 15.4621 25.1835H14.0567V22.7848H15.4515C15.5733 22.7849 15.6913 22.7428 15.7857 22.6658C15.88 22.5888 15.9449 22.4815 15.9692 22.3622C16.1746 21.3367 16.5765 20.3607 17.1527 19.488C17.2205 19.3868 17.2512 19.2652 17.2397 19.1439C17.2281 19.0225 17.175 18.9089 17.0893 18.8223L16.1172 17.829L17.829 16.1172L18.8223 17.0893C18.9082 17.1725 19.0198 17.224 19.1388 17.2355C19.2578 17.247 19.3771 17.2178 19.4774 17.1527C20.3543 16.5771 21.3336 16.1754 22.3621 15.9693C22.4815 15.9449 22.5887 15.8801 22.6657 15.7857C22.7427 15.6914 22.7848 15.5733 22.7848 15.4515V14.0567H25.2152V15.4515C25.2151 15.5733 25.2572 15.6914 25.3342 15.7857C25.4112 15.8801 25.5185 15.9449 25.6378 15.9693C26.6543 16.1658 27.621 16.5647 28.4803 17.1422C28.5815 17.21 28.7031 17.2407 28.8244 17.2292C28.9458 17.2176 29.0594 17.1645 29.146 17.0788L30.1393 16.1066L31.8722 17.8184L30.879 18.8117C30.7932 18.8983 30.7401 19.0119 30.7286 19.1333C30.717 19.2546 30.7477 19.3762 30.8156 19.4774C31.3952 20.3522 31.7973 21.3323 31.999 22.3621C32.0234 22.4815 32.0882 22.5887 32.1826 22.6657C32.2769 22.7427 32.395 22.7848 32.5168 22.7848H33.9222V25.1941Z"/>
</mask>
<path d="M34.4716 21.7387H32.9395C32.7114 20.8668 32.3553 20.0336 31.8828 19.2661L32.9395 18.2094C33.1467 18.004 33.148 17.6695 32.9426 17.4623L32.9395 17.4592L30.5303 14.9971C30.3248 14.7958 29.996 14.7958 29.7906 14.9971L28.7339 16.0538C27.9788 15.5794 27.1557 15.223 26.293 14.9971V13.5284C26.293 13.2366 26.0565 13 25.7647 13H22.2776C21.9858 13 21.7493 13.2366 21.7493 13.5284V15.0288C20.8815 15.2592 20.052 15.6152 19.2872 16.0855L18.2305 15.0288C18.0251 14.8275 17.6963 14.8275 17.4909 15.0288L15.0077 17.4486C14.8063 17.654 14.8063 17.9828 15.0077 18.1882L16.0643 19.2449C15.5931 20.013 15.2371 20.8461 15.0077 21.7175H13.5284C13.4584 21.7111 13.3879 21.7223 13.3234 21.7499C13.2588 21.7776 13.2021 21.821 13.1585 21.876C13.0589 21.9736 13.002 22.1065 13 22.2459V25.7012C13 25.993 13.2366 26.2296 13.5284 26.2296H15.0288C15.2584 27.101 15.6144 27.934 16.0855 28.7022L15.0288 29.7589C14.8274 29.9644 14.8274 30.2931 15.0288 30.4986L17.4486 32.9712C17.654 33.1725 17.9828 33.1725 18.1882 32.9712L19.2449 31.9145C20.014 32.3839 20.8468 32.7398 21.7175 32.9712V34.4716C21.7175 34.7634 21.9541 35 22.2459 35H25.7329C26.0247 35 26.2613 34.7634 26.2613 34.4716V32.95C27.1237 32.7233 27.9467 32.367 28.7022 31.8934L29.7589 32.95C29.9643 33.1514 30.2931 33.1514 30.4985 32.95L32.9711 30.4986C33.1783 30.2931 33.1797 29.9586 32.9742 29.7514L32.9711 29.7483L31.9145 28.6916C32.3867 27.9278 32.7428 27.0981 32.9712 26.2296H34.4716C34.7634 26.2296 35 25.993 35 25.7012V22.267C35 21.9752 34.7634 21.7387 34.4716 21.7387ZM33.9222 25.1941H32.5168C32.395 25.194 32.277 25.2361 32.1826 25.3131C32.0883 25.3901 32.0234 25.4974 31.9991 25.6167C31.7974 26.6433 31.3952 27.6199 30.8156 28.4909C30.7478 28.5921 30.7171 28.7137 30.7286 28.835C30.7402 28.9564 30.7933 29.07 30.879 29.1566L31.8723 30.1499L30.1393 31.8617L29.146 30.8895C29.0594 30.8038 28.9458 30.7507 28.8245 30.7391C28.7032 30.7276 28.5816 30.7583 28.4803 30.8261C27.6183 31.4079 26.6481 31.8104 25.6273 32.0096C25.508 32.0339 25.4007 32.0988 25.3237 32.1931C25.2467 32.2875 25.2046 32.4055 25.2047 32.5273V33.9221H22.7743V32.5273C22.7743 32.4055 22.7323 32.2875 22.6552 32.1931C22.5782 32.0988 22.471 32.0339 22.3516 32.0096C21.324 31.8005 20.3453 31.399 19.4669 30.8261C19.3666 30.761 19.2473 30.7318 19.1283 30.7433C19.0093 30.7549 18.8977 30.8064 18.8118 30.8895L17.8184 31.8617L16.1172 30.1499L17.0893 29.1566C17.1751 29.07 17.2282 28.9564 17.2397 28.835C17.2513 28.7137 17.2206 28.5921 17.1527 28.4909C16.579 27.6142 16.1807 26.6345 15.9798 25.6062C15.9555 25.4868 15.8906 25.3796 15.7963 25.3026C15.7019 25.2255 15.5839 25.1835 15.4621 25.1835H14.0567V22.7848H15.4515C15.5733 22.7849 15.6913 22.7428 15.7857 22.6658C15.88 22.5888 15.9449 22.4815 15.9692 22.3622C16.1746 21.3367 16.5765 20.3607 17.1527 19.488C17.2205 19.3868 17.2512 19.2652 17.2397 19.1439C17.2281 19.0225 17.175 18.9089 17.0893 18.8223L16.1172 17.829L17.829 16.1172L18.8223 17.0893C18.9082 17.1725 19.0198 17.224 19.1388 17.2355C19.2578 17.247 19.3771 17.2178 19.4774 17.1527C20.3543 16.5771 21.3336 16.1754 22.3621 15.9693C22.4815 15.9449 22.5887 15.8801 22.6657 15.7857C22.7427 15.6914 22.7848 15.5733 22.7848 15.4515V14.0567H25.2152V15.4515C25.2151 15.5733 25.2572 15.6914 25.3342 15.7857C25.4112 15.8801 25.5185 15.9449 25.6378 15.9693C26.6543 16.1658 27.621 16.5647 28.4803 17.1422C28.5815 17.21 28.7031 17.2407 28.8244 17.2292C28.9458 17.2176 29.0594 17.1645 29.146 17.0788L30.1393 16.1066L31.8722 17.8184L30.879 18.8117C30.7932 18.8983 30.7401 19.0119 30.7286 19.1333C30.717 19.2546 30.7477 19.3762 30.8156 19.4774C31.3952 20.3522 31.7973 21.3323 31.999 22.3621C32.0234 22.4815 32.0882 22.5887 32.1826 22.6657C32.2769 22.7427 32.395 22.7848 32.5168 22.7848H33.9222V25.1941Z" fill="#6F767E"/>
<path d="M34.4716 21.7387H32.9395C32.7114 20.8668 32.3553 20.0336 31.8828 19.2661L32.9395 18.2094C33.1467 18.004 33.148 17.6695 32.9426 17.4623L32.9395 17.4592L30.5303 14.9971C30.3248 14.7958 29.996 14.7958 29.7906 14.9971L28.7339 16.0538C27.9788 15.5794 27.1557 15.223 26.293 14.9971V13.5284C26.293 13.2366 26.0565 13 25.7647 13H22.2776C21.9858 13 21.7493 13.2366 21.7493 13.5284V15.0288C20.8815 15.2592 20.052 15.6152 19.2872 16.0855L18.2305 15.0288C18.0251 14.8275 17.6963 14.8275 17.4909 15.0288L15.0077 17.4486C14.8063 17.654 14.8063 17.9828 15.0077 18.1882L16.0643 19.2449C15.5931 20.013 15.2371 20.8461 15.0077 21.7175H13.5284C13.4584 21.7111 13.3879 21.7223 13.3234 21.7499C13.2588 21.7776 13.2021 21.821 13.1585 21.876C13.0589 21.9736 13.002 22.1065 13 22.2459V25.7012C13 25.993 13.2366 26.2296 13.5284 26.2296H15.0288C15.2584 27.101 15.6144 27.934 16.0855 28.7022L15.0288 29.7589C14.8274 29.9644 14.8274 30.2931 15.0288 30.4986L17.4486 32.9712C17.654 33.1725 17.9828 33.1725 18.1882 32.9712L19.2449 31.9145C20.014 32.3839 20.8468 32.7398 21.7175 32.9712V34.4716C21.7175 34.7634 21.9541 35 22.2459 35H25.7329C26.0247 35 26.2613 34.7634 26.2613 34.4716V32.95C27.1237 32.7233 27.9467 32.367 28.7022 31.8934L29.7589 32.95C29.9643 33.1514 30.2931 33.1514 30.4985 32.95L32.9711 30.4986C33.1783 30.2931 33.1797 29.9586 32.9742 29.7514L32.9711 29.7483L31.9145 28.6916C32.3867 27.9278 32.7428 27.0981 32.9712 26.2296H34.4716C34.7634 26.2296 35 25.993 35 25.7012V22.267C35 21.9752 34.7634 21.7387 34.4716 21.7387ZM33.9222 25.1941H32.5168C32.395 25.194 32.277 25.2361 32.1826 25.3131C32.0883 25.3901 32.0234 25.4974 31.9991 25.6167C31.7974 26.6433 31.3952 27.6199 30.8156 28.4909C30.7478 28.5921 30.7171 28.7137 30.7286 28.835C30.7402 28.9564 30.7933 29.07 30.879 29.1566L31.8723 30.1499L30.1393 31.8617L29.146 30.8895C29.0594 30.8038 28.9458 30.7507 28.8245 30.7391C28.7032 30.7276 28.5816 30.7583 28.4803 30.8261C27.6183 31.4079 26.6481 31.8104 25.6273 32.0096C25.508 32.0339 25.4007 32.0988 25.3237 32.1931C25.2467 32.2875 25.2046 32.4055 25.2047 32.5273V33.9221H22.7743V32.5273C22.7743 32.4055 22.7323 32.2875 22.6552 32.1931C22.5782 32.0988 22.471 32.0339 22.3516 32.0096C21.324 31.8005 20.3453 31.399 19.4669 30.8261C19.3666 30.761 19.2473 30.7318 19.1283 30.7433C19.0093 30.7549 18.8977 30.8064 18.8118 30.8895L17.8184 31.8617L16.1172 30.1499L17.0893 29.1566C17.1751 29.07 17.2282 28.9564 17.2397 28.835C17.2513 28.7137 17.2206 28.5921 17.1527 28.4909C16.579 27.6142 16.1807 26.6345 15.9798 25.6062C15.9555 25.4868 15.8906 25.3796 15.7963 25.3026C15.7019 25.2255 15.5839 25.1835 15.4621 25.1835H14.0567V22.7848H15.4515C15.5733 22.7849 15.6913 22.7428 15.7857 22.6658C15.88 22.5888 15.9449 22.4815 15.9692 22.3622C16.1746 21.3367 16.5765 20.3607 17.1527 19.488C17.2205 19.3868 17.2512 19.2652 17.2397 19.1439C17.2281 19.0225 17.175 18.9089 17.0893 18.8223L16.1172 17.829L17.829 16.1172L18.8223 17.0893C18.9082 17.1725 19.0198 17.224 19.1388 17.2355C19.2578 17.247 19.3771 17.2178 19.4774 17.1527C20.3543 16.5771 21.3336 16.1754 22.3621 15.9693C22.4815 15.9449 22.5887 15.8801 22.6657 15.7857C22.7427 15.6914 22.7848 15.5733 22.7848 15.4515V14.0567H25.2152V15.4515C25.2151 15.5733 25.2572 15.6914 25.3342 15.7857C25.4112 15.8801 25.5185 15.9449 25.6378 15.9693C26.6543 16.1658 27.621 16.5647 28.4803 17.1422C28.5815 17.21 28.7031 17.2407 28.8244 17.2292C28.9458 17.2176 29.0594 17.1645 29.146 17.0788L30.1393 16.1066L31.8722 17.8184L30.879 18.8117C30.7932 18.8983 30.7401 19.0119 30.7286 19.1333C30.717 19.2546 30.7477 19.3762 30.8156 19.4774C31.3952 20.3522 31.7973 21.3323 31.999 22.3621C32.0234 22.4815 32.0882 22.5887 32.1826 22.6657C32.2769 22.7427 32.395 22.7848 32.5168 22.7848H33.9222V25.1941Z" stroke="#6F767E" stroke-width="0.4" mask="url(#path-6-outside-1_2412_289)"/>
</g>
<defs>
<clipPath id="clip0_2412_289">
<rect width="100" height="100" fill="white" transform="translate(12 12)"/>
</clipPath>
</defs>
</svg>
