<svg width="48" height="48" viewBox="0 0 48 48" fill="none" xmlns="http://www.w3.org/2000/svg">
<g filter="url(#filter0_ii_2412_273)">
<rect width="48" height="48" rx="12" fill="#3BC1C5"/>
<path fill-rule="evenodd" clip-rule="evenodd" d="M14.9931 21.1062C14.361 21.6751 14 22.4856 14 23.3361V31C14 32.6569 15.3431 34 17 34H31C32.6569 34 34 32.6569 34 31V23.3361C34 22.4856 33.639 21.6751 33.0069 21.1062L26.0069 14.8062C24.866 13.7794 23.134 13.7794 21.9931 14.8062L14.9931 21.1062ZM23 25C21.8954 25 21 25.8954 21 27V31C21 31.5523 21.4477 32 22 32H26C26.5523 32 27 31.5523 27 31V27C27 25.8954 26.1046 25 25 25H23Z" fill="white"/>
</g>
<defs>
<filter id="filter0_ii_2412_273" x="0" y="-1" width="48" height="50" filterUnits="userSpaceOnUse" color-interpolation-filters="sRGB">
<feFlood flood-opacity="0" result="BackgroundImageFix"/>
<feBlend mode="normal" in="SourceGraphic" in2="BackgroundImageFix" result="shape"/>
<feColorMatrix in="SourceAlpha" type="matrix" values="0 0 0 0 0 0 0 0 0 0 0 0 0 0 0 0 0 0 127 0" result="hardAlpha"/>
<feOffset dy="1"/>
<feGaussianBlur stdDeviation="0.5"/>
<feComposite in2="hardAlpha" operator="arithmetic" k2="-1" k3="1"/>
<feColorMatrix type="matrix" values="0 0 0 0 1 0 0 0 0 1 0 0 0 0 1 0 0 0 1 0"/>
<feBlend mode="normal" in2="shape" result="effect1_innerShadow_2412_273"/>
<feColorMatrix in="SourceAlpha" type="matrix" values="0 0 0 0 0 0 0 0 0 0 0 0 0 0 0 0 0 0 127 0" result="hardAlpha"/>
<feOffset dy="-2"/>
<feGaussianBlur stdDeviation="0.5"/>
<feComposite in2="hardAlpha" operator="arithmetic" k2="-1" k3="1"/>
<feColorMatrix type="matrix" values="0 0 0 0 0 0 0 0 0 0 0 0 0 0 0 0 0 0 0.05 0"/>
<feBlend mode="multiply" in2="effect1_innerShadow_2412_273" result="effect2_innerShadow_2412_273"/>
</filter>
</defs>
</svg>
