<svg width="48" height="48" viewBox="0 0 48 48" fill="none" xmlns="http://www.w3.org/2000/svg">
<path d="M26.9135 14.2189C27.7723 14.2189 28.4827 14.9273 28.4828 15.7863V18.7414H33.0668C33.9252 18.7414 34.635 19.4506 34.6351 20.3097V28.632C34.6351 29.491 33.9252 30.2003 33.0668 30.2003H31.7396V33.1554L31.7318 33.258C31.7161 33.3584 31.6777 33.4545 31.6185 33.5382C31.5395 33.6501 31.4273 33.7346 31.2982 33.7804C31.1691 33.8263 31.0288 33.8311 30.8969 33.7941C30.798 33.7663 30.7077 33.7158 30.6322 33.6476L30.5619 33.5744L27.8197 30.2003H21.1234C20.2647 30.2002 19.5551 29.4912 19.5551 28.632V26.4914L17.476 29.0509C17.3895 29.1572 17.2719 29.2336 17.14 29.2707C17.0081 29.3076 16.8677 29.3028 16.7386 29.257C16.6097 29.2111 16.4982 29.1266 16.4193 29.0148C16.3403 28.9028 16.2972 28.769 16.2972 28.632V25.6769H14.9711C14.1121 25.6769 13.4028 24.9681 13.4027 24.1095V15.7863C13.4028 14.9275 14.1123 14.2189 14.9711 14.2189H26.9135ZM28.4828 24.1095L28.475 24.2687C28.3938 25.0542 27.7197 25.6768 26.9144 25.6769H20.8822V28.632C20.8822 28.7755 20.9795 28.874 21.1234 28.8742H28.1361L28.2094 28.8781C28.2824 28.8863 28.3536 28.9069 28.4203 28.9386C28.5094 28.981 28.5886 29.0427 28.6508 29.1193L30.4135 31.2873V29.5373C30.4135 29.3613 30.4834 29.1919 30.6078 29.0675C30.7321 28.9433 30.9008 28.8732 31.0765 28.8732H33.0668C33.2102 28.8732 33.309 28.7756 33.309 28.632V20.3097C33.3089 20.1662 33.2101 20.0685 33.0668 20.0685H28.4828V24.1095ZM14.9711 15.5451C14.8273 15.5451 14.7299 15.6428 14.7299 15.7863V24.1095C14.73 24.2525 14.8276 24.3507 14.9711 24.3507H16.9613C17.1372 24.3508 17.3057 24.4207 17.4301 24.5451C17.5544 24.6695 17.6244 24.8379 17.6244 25.0138V26.7638L19.3871 24.5959L19.4369 24.5412C19.4893 24.4896 19.5499 24.447 19.6166 24.4152C19.7055 24.3728 19.8032 24.3508 19.9017 24.3507H26.9144C27.058 24.3506 27.1555 24.2522 27.1556 24.1095V15.7863C27.1556 15.6432 27.0583 15.5452 26.9144 15.5451H14.9711Z" fill="#6F767E" stroke="#6F767E" stroke-width="0.2"/>
<path d="M21.3304 17.0458C21.5063 17.0459 21.6748 17.1158 21.7992 17.2401L21.8822 17.3407C21.9543 17.4489 21.9935 17.5769 21.9935 17.7089V22.2519C21.9935 22.3838 21.9544 22.5118 21.8822 22.62L21.7992 22.7206C21.6748 22.845 21.5063 22.9149 21.3304 22.9149C21.1985 22.9149 21.0705 22.8758 20.9623 22.8036L20.8607 22.7206C20.7366 22.5962 20.6664 22.4276 20.6664 22.2519V21.1464H18.9515V22.2421C18.9515 22.3741 18.9124 22.5021 18.8402 22.6103L18.7572 22.7108C18.6328 22.8352 18.4643 22.9052 18.2885 22.9052C18.1565 22.9052 18.0285 22.866 17.9203 22.7939L17.8197 22.7108C17.6953 22.5865 17.6254 22.418 17.6254 22.2421V17.7089C17.6254 17.6218 17.6419 17.5354 17.6752 17.455L17.7367 17.3398C17.7607 17.3038 17.789 17.2709 17.8197 17.2401L17.9193 17.1571C17.9554 17.133 17.9942 17.1123 18.0345 17.0956L18.1586 17.0585C18.2012 17.05 18.2448 17.0458 18.2885 17.0458H21.3304ZM24.1381 17.0585C24.1807 17.067 24.2227 17.0789 24.2631 17.0956L24.3773 17.1571C24.4134 17.1813 24.447 17.2093 24.4779 17.2401L24.5609 17.3398C24.585 17.3758 24.6048 17.4147 24.6215 17.455L24.6595 17.579C24.6681 17.6216 24.6722 17.6652 24.6722 17.7089V22.2421C24.6722 22.2855 24.6679 22.3286 24.6595 22.371L24.6215 22.496C24.5881 22.5764 24.5394 22.6493 24.4779 22.7108C24.4164 22.7724 24.3434 22.8211 24.2631 22.8544C24.1826 22.8877 24.0962 22.9052 24.0092 22.9052C23.8772 22.9052 23.7492 22.866 23.641 22.7939L23.5404 22.7108C23.416 22.5865 23.3461 22.418 23.3461 22.2421V17.7089C23.3461 17.6218 23.3626 17.5354 23.3959 17.455C23.4292 17.3745 23.4788 17.3017 23.5404 17.2401L23.64 17.1571C23.6761 17.133 23.7149 17.1123 23.7552 17.0956L23.8793 17.0585C23.9219 17.05 23.9655 17.0458 24.0092 17.0458L24.1381 17.0585ZM18.9515 19.8192H20.6664V18.372H18.9515V19.8192Z" fill="#6F767E" stroke="#6F767E" stroke-width="0.2"/>
</svg>
