<svg width="48" height="48" viewBox="0 0 48 48" fill="none" xmlns="http://www.w3.org/2000/svg">
<path d="M20.6667 24H19C18.0808 24 17.3333 24.7475 17.3333 25.6667V27.3333C17.3333 28.2525 18.0808 29 19 29H20.6667C21.5858 29 22.3333 28.2525 22.3333 27.3333V25.6667C22.3333 24.7475 21.5858 24 20.6667 24ZM19 27.3333V25.6667H20.6667V27.3333H19ZM29.8333 15.6667H29V14.8333C29 14.3733 28.6275 14 28.1667 14C27.7058 14 27.3333 14.3733 27.3333 14.8333V15.6667H20.6667V14.8333C20.6667 14.3733 20.2942 14 19.8333 14C19.3725 14 19 14.3733 19 14.8333V15.6667H18.1667C15.8692 15.6667 14 17.5358 14 19.8333V29.8333C14 32.1308 15.8692 34 18.1667 34H29.8333C32.1308 34 34 32.1308 34 29.8333V19.8333C34 17.5358 32.1308 15.6667 29.8333 15.6667ZM18.1667 17.3333H29.8333C31.2117 17.3333 32.3333 18.455 32.3333 19.8333V20.6667H15.6667V19.8333C15.6667 18.455 16.7883 17.3333 18.1667 17.3333ZM29.8333 32.3333H18.1667C16.7883 32.3333 15.6667 31.2117 15.6667 29.8333V22.3333H32.3333V29.8333C32.3333 31.2117 31.2117 32.3333 29.8333 32.3333Z" fill="#6F767E"/>
</svg>
