<svg width="48" height="52" viewBox="0 0 48 52" fill="none" xmlns="http://www.w3.org/2000/svg">
<rect width="48" height="48" rx="24" fill="#F4F4F4"/>
<g filter="url(#filter0_dii_2412_340)">
<rect x="4" y="4" width="40" height="40" rx="20" fill="#FCFCFC"/>
<path fill-rule="evenodd" clip-rule="evenodd" d="M24 30C27.3137 30 30 27.3137 30 24C30 20.6863 27.3137 18 24 18C20.6863 18 18 20.6863 18 24C18 27.3137 20.6863 30 24 30Z" fill="#1A1D1F"/>
<path fill-rule="evenodd" clip-rule="evenodd" d="M23.9951 13.5C24.5474 13.5 24.9951 13.9477 24.9951 14.5V15.5C24.9951 16.0523 24.5474 16.5 23.9951 16.5C23.4428 16.5 22.9951 16.0523 22.9951 15.5V14.5C22.9951 13.9477 23.4428 13.5 23.9951 13.5Z" fill="#1A1D1F"/>
<path fill-rule="evenodd" clip-rule="evenodd" d="M23.9951 31.5C24.5474 31.5 24.9951 31.9477 24.9951 32.5V33.4968C24.9951 34.0491 24.5474 34.4968 23.9951 34.4968C23.4428 34.4968 22.9951 34.0491 22.9951 33.4968V32.5C22.9951 31.9477 23.4428 31.5 23.9951 31.5Z" fill="#1A1D1F"/>
<path fill-rule="evenodd" clip-rule="evenodd" d="M13.4967 23.9984C13.4967 23.4461 13.9444 22.9984 14.4967 22.9984H15.4967C16.049 22.9984 16.4967 23.4461 16.4967 23.9984C16.4967 24.5507 16.049 24.9984 15.4967 24.9984H14.4967C13.9444 24.9984 13.4967 24.5507 13.4967 23.9984Z" fill="#1A1D1F"/>
<path fill-rule="evenodd" clip-rule="evenodd" d="M31.4967 23.9984C31.4967 23.4461 31.9445 22.9984 32.4967 22.9984H33.4935C34.0458 22.9984 34.4935 23.4461 34.4935 23.9984C34.4935 24.5507 34.0458 24.9984 33.4935 24.9984H32.4967C31.9445 24.9984 31.4967 24.5507 31.4967 23.9984Z" fill="#1A1D1F"/>
<path fill-rule="evenodd" clip-rule="evenodd" d="M16.5717 31.4219C16.1812 31.0313 16.1812 30.3982 16.5717 30.0077L17.2788 29.3005C17.6694 28.91 18.3025 28.91 18.6931 29.3005C19.0836 29.6911 19.0836 30.3242 18.6931 30.7148L17.986 31.4219C17.5954 31.8124 16.9623 31.8124 16.5717 31.4219Z" fill="#1A1D1F"/>
<path fill-rule="evenodd" clip-rule="evenodd" d="M29.2997 18.6939C28.9091 18.3034 28.9091 17.6703 29.2997 17.2797L30.0045 16.5749C30.395 16.1844 31.0282 16.1844 31.4187 16.5749C31.8092 16.9654 31.8092 17.5986 31.4187 17.9891L30.7139 18.6939C30.3234 19.0845 29.6902 19.0845 29.2997 18.6939Z" fill="#1A1D1F"/>
<path fill-rule="evenodd" clip-rule="evenodd" d="M16.5717 16.5749C16.9623 16.1844 17.5954 16.1844 17.986 16.5749L18.6931 17.282C19.0836 17.6725 19.0836 18.3057 18.6931 18.6962C18.3025 19.0867 17.6694 19.0867 17.2788 18.6962L16.5717 17.9891C16.1812 17.5986 16.1812 16.9654 16.5717 16.5749Z" fill="#1A1D1F"/>
<path fill-rule="evenodd" clip-rule="evenodd" d="M29.2997 29.3028C29.6902 28.9123 30.3234 28.9123 30.7139 29.3028L31.4187 30.0077C31.8092 30.3982 31.8092 31.0313 31.4187 31.4219C31.0282 31.8124 30.395 31.8124 30.0045 31.4219L29.2997 30.717C28.9091 30.3265 28.9091 29.6933 29.2997 29.3028Z" fill="#1A1D1F"/>
</g>
<defs>
<filter id="filter0_dii_2412_340" x="0" y="3" width="48" height="49" filterUnits="userSpaceOnUse" color-interpolation-filters="sRGB">
<feFlood flood-opacity="0" result="BackgroundImageFix"/>
<feColorMatrix in="SourceAlpha" type="matrix" values="0 0 0 0 0 0 0 0 0 0 0 0 0 0 0 0 0 0 127 0" result="hardAlpha"/>
<feMorphology radius="4" operator="erode" in="SourceAlpha" result="effect1_dropShadow_2412_340"/>
<feOffset dy="4"/>
<feGaussianBlur stdDeviation="4"/>
<feColorMatrix type="matrix" values="0 0 0 0 0 0 0 0 0 0 0 0 0 0 0 0 0 0 0.25 0"/>
<feBlend mode="multiply" in2="BackgroundImageFix" result="effect1_dropShadow_2412_340"/>
<feBlend mode="normal" in="SourceGraphic" in2="effect1_dropShadow_2412_340" result="shape"/>
<feColorMatrix in="SourceAlpha" type="matrix" values="0 0 0 0 0 0 0 0 0 0 0 0 0 0 0 0 0 0 127 0" result="hardAlpha"/>
<feOffset dy="2"/>
<feComposite in2="hardAlpha" operator="arithmetic" k2="-1" k3="1"/>
<feColorMatrix type="matrix" values="0 0 0 0 1 0 0 0 0 1 0 0 0 0 1 0 0 0 0.25 0"/>
<feBlend mode="normal" in2="shape" result="effect2_innerShadow_2412_340"/>
<feColorMatrix in="SourceAlpha" type="matrix" values="0 0 0 0 0 0 0 0 0 0 0 0 0 0 0 0 0 0 127 0" result="hardAlpha"/>
<feOffset dy="-1"/>
<feGaussianBlur stdDeviation="0.5"/>
<feComposite in2="hardAlpha" operator="arithmetic" k2="-1" k3="1"/>
<feColorMatrix type="matrix" values="0 0 0 0 0 0 0 0 0 0 0 0 0 0 0 0 0 0 0.04 0"/>
<feBlend mode="multiply" in2="effect2_innerShadow_2412_340" result="effect3_innerShadow_2412_340"/>
</filter>
</defs>
</svg>
